<svg width="0" height="0" class="hidden">
  <symbol xmlns="http://www.w3.org/2000/svg" viewBox="0 0 24 24" id="arrow">
    <path fill-rule="evenodd" clip-rule="evenodd" d="M14.7929 6.79289C15.1834 6.40237 15.8166 6.40237 16.2071 6.79289L20.7071 11.2929C21.0976 11.6834 21.0976 12.3166 20.7071 12.7071L16.2071 17.2071C15.8166 17.5976 15.1834 17.5976 14.7929 17.2071C14.4024 16.8166 14.4024 16.1834 14.7929 15.7929L17.5858 13H4C3.44772 13 3 12.5523 3 12C3 11.4477 3.44772 11 4 11H17.5858L14.7929 8.20711C14.4024 7.81658 14.4024 7.18342 14.7929 6.79289Z"></path>
  </symbol>
  <symbol xmlns="http://www.w3.org/2000/svg" viewBox="0 0 24 24" id="up">
    <path fill-rule="evenodd" clip-rule="evenodd" d="M4.29289 15.7071C3.90237 15.3166 3.90237 14.6834 4.29289 14.2929L11.2929 7.29289C11.6834 6.90237 12.3166 6.90237 12.7071 7.29289L19.7071 14.2929C20.0976 14.6834 20.0976 15.3166 19.7071 15.7071C19.3166 16.0976 18.6834 16.0976 18.2929 15.7071L12 9.41421L5.70711 15.7071C5.31658 16.0976 4.68342 16.0976 4.29289 15.7071Z"></path>
  </symbol>
  <symbol width="80" height="80" xmlns="http://www.w3.org/2000/svg" id="play">
    <circle cx="40" cy="40" r="40" fill="none"/>
    <path d="M51.5 39.134C52.1667 39.5189 52.1667 40.4811 51.5 40.866L35 50.3923C34.3333 50.7772 33.5 50.2961 33.5 49.5263L33.5 30.4737C33.5 29.7039 34.3333 29.2228 35 29.6077L51.5 39.134Z" fill="white"/>
  </symbol>
  <symbol width="24" height="24" xmlns="http://www.w3.org/2000/svg" id="volume-off">
    <path fill="#FFFFFF" fill-rule="evenodd" clip-rule="evenodd" d="M14.4 18.7C15.1 19.2 16 18.8 16 17.9V13.4L12.3 17.1L14.4 18.7Z"/>
    <path fill="#FFFFFF" fill-rule="evenodd" clip-rule="evenodd" d="M20.7 5.3C20.3 4.9 19.7 4.9 19.3 5.3L16 8.6V6.1C16 5.3 15 4.8 14.4 5.3L11.6 7.6C11.2 7.8 10.8 8 10.3 8H8C6.9 8 6 8.9 6 10V14C6 15.1 6.9 16 8 16H8.6L5.3 19.3C4.9 19.7 4.9 20.3 5.3 20.7C5.7 21.1 6.3 21.1 6.7 20.7L20.7 6.7C21.1 6.3 21.1 5.7 20.7 5.3Z"/>
  </symbol>
</svg>