<svg width="0" height="0" class="hidden">
  <symbol xmlns="http://www.w3.org/2000/s
  vg" viewBox="0 0 24 24" id="arrow">
    <path fill-rule="evenodd" clip-rule="evenodd" d="M14.7929 6.79289C15.1834 6.40237 15.8166 6.40237 16.2071 6.79289L20.7071 11.2929C21.0976 11.6834 21.0976 12.3166 20.7071 12.7071L16.2071 17.2071C15.8166 17.5976 15.1834 17.5976 14.7929 17.2071C14.4024 16.8166 14.4024 16.1834 14.7929 15.7929L17.5858 13H4C3.44772 13 3 12.5523 3 12C3 11.4477 3.44772 11 4 11H17.5858L14.7929 8.20711C14.4024 7.81658 14.4024 7.18342 14.7929 6.79289Z"></path>
  </symbol>
  <symbol xmlns="http://www.w3.org/2000/svg" viewBox="0 0 24 24" id="up">
    <path fill-rule="evenodd" clip-rule="evenodd" d="M4.29289 15.7071C3.90237 15.3166 3.90237 14.6834 4.29289 14.2929L11.2929 7.29289C11.6834 6.90237 12.3166 6.90237 12.7071 7.29289L19.7071 14.2929C20.0976 14.6834 20.0976 15.3166 19.7071 15.7071C19.3166 16.0976 18.6834 16.0976 18.2929 15.7071L12 9.41421L5.70711 15.7071C5.31658 16.0976 4.68342 16.0976 4.29289 15.7071Z"></path>
  </symbol>
  <symbol width="80" height="80" xmlns="http://www.w3.org/2000/svg" id="play">
    <circle cx="40" cy="40" r="40" fill="none"/>
    <path d="M51.5 39.134C52.1667 39.5189 52.1667 40.4811 51.5 40.866L35 50.3923C34.3333 50.7772 33.5 50.2961 33.5 49.5263L33.5 30.4737C33.5 29.7039 34.3333 29.2228 35 29.6077L51.5 39.134Z" fill="white"/>
  </symbol>
  <symbol width="24" height="24" xmlns="http://www.w3.org/2000/svg" id="volume-off">
    <path fill="#FFFFFF" fill-rule="evenodd" clip-rule="evenodd" d="M14.4 18.7C15.1 19.2 16 18.8 16 17.9V13.4L12.3 17.1L14.4 18.7Z"/>
    <path fill="#FFFFFF" fill-rule="evenodd" clip-rule="evenodd" d="M20.7 5.3C20.3 4.9 19.7 4.9 19.3 5.3L16 8.6V6.1C16 5.3 15 4.8 14.4 5.3L11.6 7.6C11.2 7.8 10.8 8 10.3 8H8C6.9 8 6 8.9 6 10V14C6 15.1 6.9 16 8 16H8.6L5.3 19.3C4.9 19.7 4.9 20.3 5.3 20.7C5.7 21.1 6.3 21.1 6.7 20.7L20.7 6.7C21.1 6.3 21.1 5.7 20.7 5.3Z"/>
  </symbol>
  <symbol width="24" height="24"  xmlns="http://www.w3.org/2000/svg" id="volume-on">
    <path d="M2 10C2 8.9 2.9 8 4 8H6.3C6.8 8 7.2 7.8 7.5 7.6L10.3 5.3C11 4.8 12 5.2 12 6.1V17.9C12 18.7 11 19.2 10.4 18.7L7.6 16.4C7.2 16.2 6.8 16 6.3 16H4C2.9 16 2 15.1 2 14V10Z" fill="#FFFFFF"/>
    <path d="M15 17C14.7 17 14.5 16.9 14.3 16.7C13.9 16.3 13.9 15.7 14.3 15.3C14.3 15.3 15.5 14 15.5 12C15.5 10 14.3 8.8 14.3 8.7C13.9 8.3 13.9 7.7 14.3 7.3C14.7 6.9 15.3 6.9 15.7 7.3C15.8 7.4 17.5 9.1 17.5 12C17.5 14.9 15.8 16.6 15.7 16.7C15.5 16.9 15.3 17 15 17Z" fill="#FFFFFF"/>
    <path d="M18 21C17.7 21 17.5 20.9 17.3 20.7C16.9 20.3 16.9 19.7 17.3 19.3C17.3 19.3 20.2 16.5 20.2 12C20.2 7.5 17.3 4.8 17.3 4.7C16.9 4.3 16.9 3.7 17.3 3.3C17.7 2.9 18.3 2.9 18.7 3.3C18.8 3.4 22.2 6.7 22.2 12C22.2 17.4 18.8 20.6 18.7 20.7C18.5 20.9 18.2 21 18 21Z" fill="#FFFFFF"/>
  </symbol>
  <symbol width="48" height="48" viewBox="0 0 48 48" xmlns="http://www.w3.org/2000/svg" id="values-quality">
    <path d="M44.0166 29.7188C44.6859 28.9716 45.0938 27.9853 45.0938 26.9062C45.0938 24.5803 43.2009 22.6875 40.875 22.6875H32.6869C33.4978 20.2266 33.8438 16.9613 33.8438 15.5616V14.1562C33.8438 11.055 31.32 8.53125 28.2188 8.53125H26.8125C26.1675 8.53125 25.605 8.97 25.4484 9.59625L24.6825 12.6609C23.6091 16.9528 20.2013 21.6881 16.6744 22.5487C16.0566 20.985 14.5312 19.875 12.75 19.875H4.3125C3.53625 19.875 2.90625 20.505 2.90625 21.2812V46.5938C2.90625 47.37 3.53625 48 4.3125 48H12.75C14.4272 48 15.8784 47.0166 16.5581 45.5953L21.39 47.2059C22.9697 47.7328 24.6159 48 26.2819 48H38.0625C40.3884 48 42.2812 46.1072 42.2812 43.7812C42.2812 43.2328 42.1763 42.7078 41.985 42.2269C43.7738 41.7384 45.0938 40.0987 45.0938 38.1562C45.0938 37.0772 44.6859 36.0909 44.0166 35.3438C44.6859 34.5966 45.0938 33.6103 45.0938 32.5312C45.0938 31.4522 44.6859 30.4659 44.0166 29.7188ZM14.1562 43.7812C14.1562 44.5566 13.5253 45.1875 12.75 45.1875H5.71875V22.6875H12.75C13.5253 22.6875 14.1562 23.3184 14.1562 24.0938V43.7812ZM38.0625 31.125H40.875C41.6503 31.125 42.2812 31.7559 42.2812 32.5312C42.2812 33.3066 41.6503 33.9375 40.875 33.9375H38.0625C37.2863 33.9375 36.6562 34.5675 36.6562 35.3438C36.6562 36.12 37.2863 36.75 38.0625 36.75H40.875C41.6503 36.75 42.2812 37.3809 42.2812 38.1562C42.2812 38.9316 41.6503 39.5625 40.875 39.5625H38.0625C37.2863 39.5625 36.6562 40.1925 36.6562 40.9688C36.6562 41.745 37.2863 42.375 38.0625 42.375C38.8378 42.375 39.4688 43.0059 39.4688 43.7812C39.4688 44.5566 38.8378 45.1875 38.0625 45.1875H26.2819C24.9187 45.1875 23.5716 44.9691 22.2787 44.5378L16.9688 42.7678V25.3669C19.1747 24.9478 21.3337 23.5509 23.2828 21.2644C25.1859 19.0313 26.7291 16.0706 27.4106 13.3434L27.9103 11.3438H28.2188C29.7694 11.3438 31.0312 12.6056 31.0312 14.1562V15.5616C31.0312 17.4497 30.4406 21.0712 29.685 22.6875H26.8125C26.0362 22.6875 25.4062 23.3175 25.4062 24.0938C25.4062 24.87 26.0362 25.5 26.8125 25.5H40.875C41.6503 25.5 42.2812 26.1309 42.2812 26.9062C42.2812 27.6816 41.6503 28.3125 40.875 28.3125H38.0625C37.2863 28.3125 36.6562 28.9425 36.6562 29.7188C36.6562 30.495 37.2863 31.125 38.0625 31.125Z" fill="#FF5A30"/>
    <path d="M9.9375 42.375C10.7142 42.375 11.3438 41.7454 11.3438 40.9688C11.3438 40.1921 10.7142 39.5625 9.9375 39.5625C9.16085 39.5625 8.53125 40.1921 8.53125 40.9688C8.53125 41.7454 9.16085 42.375 9.9375 42.375Z" fill="#FF5A30"/>
    <path d="M29.625 0C28.8484 0 28.2188 0.629625 28.2188 1.40625V4.3125C28.2188 5.08913 28.8484 5.71875 29.625 5.71875C30.4016 5.71875 31.0312 5.08913 31.0312 4.3125V1.40625C31.0312 0.629625 30.4016 0 29.625 0Z" fill="#FF5A30"/>
    <path d="M23.6589 6.20139L21.6701 4.21267C21.1211 3.66348 20.2306 3.66348 19.6814 4.21267C19.1322 4.76186 19.1322 5.6522 19.6814 6.20139L21.6701 8.19011C22.2192 8.7392 23.1098 8.7393 23.6589 8.19011C24.2081 7.64092 24.2081 6.75058 23.6589 6.20139Z" fill="#FF5A30"/>
    <path d="M39.569 4.21267C39.0199 3.66348 38.1295 3.66348 37.5803 4.21267L35.5916 6.2013C35.0424 6.75049 35.0424 7.64083 35.5916 8.19002C36.1407 8.73921 37.0311 8.7393 37.5803 8.19011L39.569 6.20139C40.1182 5.6522 40.1182 4.76186 39.569 4.21267Z" fill="#FF5A30"/>
  </symbol>
  <symbol width="48" height="48" viewBox="0 0 48 48"  xmlns="http://www.w3.org/2000/svg" id="values-safety">
    <g clip-path="url(#clip0_71525_491)">
    <path d="M7 44H1.5C0.672 44 0 43.328 0 42.5V25.5C0 24.672 0.672 24 1.5 24C8.512 24 11.776 26.434 11.91 26.538C12.394 26.908 12.608 27.534 12.448 28.122L8.448 42.894C8.272 43.546 7.678 44 7 44ZM3 41H5.852L9.248 28.458C8.202 27.964 6.158 27.228 3 27.044V41Z" fill="#FF5A30"/>
    <path d="M26.0002 48C21.4822 48 13.1542 44.542 6.96221 41.638C6.21221 41.286 5.89021 40.392 6.24221 39.642C6.59221 38.892 7.48821 38.566 8.23621 38.92C16.4762 42.786 22.9522 45 26.0002 45C30.0562 45 39.2642 40.618 44.0902 38.09C43.5342 37.772 42.7062 37.5 41.5002 37.5C39.7402 37.5 37.5702 38.22 35.4722 38.916C34.7902 39.142 34.1102 39.368 33.4362 39.574C31.9522 40.032 30.2002 40.5 28.4982 40.5C24.2842 40.5 18.7202 38.496 18.4862 38.41C17.7062 38.126 17.3042 37.266 17.5882 36.488C17.8722 35.708 18.7342 35.31 19.5102 35.59C19.5622 35.61 24.8142 37.5 28.4982 37.5C29.8102 37.5 31.3562 37.076 32.5562 36.706C33.2082 36.506 33.8662 36.288 34.5242 36.07C36.8482 35.298 39.2502 34.5 41.4962 34.5C46.4542 34.5 47.8322 37.802 47.8882 37.944C48.1702 38.646 47.8822 39.448 47.2202 39.814C46.6202 40.148 32.3142 48 26.0002 48Z" fill="#FF5A30"/>
    <path d="M32.9998 39.6795C32.1718 39.6795 31.4998 39.0075 31.4998 38.1795V37.2795C31.4998 36.0975 30.6578 35.0655 29.4998 34.8295L10.2378 30.8895C9.42776 30.7235 8.90376 29.9315 9.06976 29.1195C9.23576 28.3075 10.0298 27.7895 10.8398 27.9515L30.1018 31.8915C32.6498 32.4115 34.4998 34.6795 34.4998 37.2815V38.1815C34.4998 39.0075 33.8278 39.6795 32.9998 39.6795Z" fill="#FF5A30"/>
    <path d="M36 27.9991C35.8 27.9991 35.602 27.959 35.414 27.879C34.948 27.681 24 22.915 24 13.107V5.07105C24 4.42905 24.408 3.85905 25.018 3.65105L35.518 0.0790469C35.83 -0.0289531 36.17 -0.0289531 36.482 0.0790469L46.982 3.65105C47.592 3.85705 48 4.42705 48 5.07105V13.107C48 22.915 37.052 27.6831 36.586 27.8811C36.398 27.959 36.2 27.9991 36 27.9991ZM27 6.14505V13.107C27 19.803 33.91 23.789 35.998 24.8391C38.082 23.783 45 19.7771 45 13.107V6.14505L36 3.08305L27 6.14505Z" fill="#FF5A30"/>
    <path d="M35.4995 19.0003C35.1035 19.0003 34.7195 18.8423 34.4395 18.5603L30.4395 14.5603C29.8535 13.9743 29.8535 13.0243 30.4395 12.4383C31.0255 11.8523 31.9755 11.8523 32.5615 12.4383L35.3395 15.2163L40.2995 8.60027C40.7915 7.93828 41.7335 7.80227 42.3995 8.30027C43.0615 8.79827 43.1955 9.73827 42.6975 10.4003L36.6975 18.4003C36.4375 18.7483 36.0395 18.9663 35.6035 18.9963C35.5695 19.0003 35.5355 19.0003 35.4995 19.0003Z" fill="#FF5A30"/>
    </g>
    <defs>
    <clipPath id="clip0_71525_491">
    <rect width="48" height="48" fill="white"/>
    </clipPath>
    </defs>
  </symbol>
  <symbol width="48" height="48" viewBox="0 0 48 48" xmlns="http://www.w3.org/2000/svg" id="values-comfort">
    <g clip-path="url(#clip0_71525_1171)">
    <path d="M38.0536 2.09001C31.8843 1.44159 26.3377 5.93317 25.6893 12.1024L24.5623 22.8246C24.4812 23.597 25.0415 24.289 25.8139 24.3702L26.2801 24.4192L25.1041 35.6075C24.5638 40.7486 28.3068 45.3708 33.4478 45.9111C38.5889 46.4515 43.2111 42.7085 43.7514 37.5674L44.9274 26.3791L45.3935 26.4281C46.1659 26.5092 46.8579 25.9489 46.9391 25.1765L48.066 14.4543C48.7144 8.28506 44.2229 2.73842 38.0536 2.09001ZM37.7596 4.8871C42.3866 5.37341 45.7553 9.53339 45.2689 14.1603L44.877 17.8898L28.0944 16.1259L28.4864 12.3964C28.9727 7.76947 33.1327 4.40079 37.7596 4.8871ZM27.5064 21.7201L27.8004 18.923L44.583 20.6869L44.289 23.484L27.5064 21.7201ZM40.9543 37.2735C40.5761 40.8722 37.3405 43.4923 33.7418 43.114C30.1431 42.7358 27.523 39.5003 27.9012 35.9015L29.0772 24.7131L42.1303 26.0851L40.9543 37.2735Z" fill="#FF5A30"/>
    <path d="M32.171 40.1218L35.9004 40.5138C36.6728 40.595 37.3648 40.0346 37.446 39.2622C37.5271 38.4899 36.9668 37.7979 36.1944 37.7167L32.465 37.3247C31.6926 37.2435 31.0006 37.8039 30.9194 38.5763C30.8382 39.3487 31.3986 40.0406 32.171 40.1218Z" fill="#FF5A30"/>
    <path d="M9.94716 2.08968C3.77789 2.7381 -0.713682 8.28473 -0.0652657 14.454L1.06168 25.1762C1.14286 25.9486 1.83485 26.5089 2.60722 26.4277L3.0734 26.3787L4.24935 37.5671C4.7897 42.7082 9.41189 46.4511 14.5529 45.9108C19.694 45.3705 23.437 40.7483 22.8966 35.6072L21.7207 24.4188L22.1869 24.3698C22.9592 24.2887 23.5196 23.5967 23.4384 22.8243L22.3115 12.1021C21.6631 5.93284 16.1164 1.44126 9.94716 2.08968ZM3.71178 23.4837L3.4178 20.6866L20.2004 18.9226L20.4943 21.7197L3.71178 23.4837ZM20.0995 35.9012C20.4778 39.4999 17.8577 42.7355 14.259 43.1137C10.6602 43.492 7.42468 40.8719 7.04644 37.2731L5.8705 26.0848L18.9236 24.7128L20.0995 35.9012ZM19.9064 16.1255L3.12381 17.8895L2.73183 14.16C2.24552 9.53306 5.6142 5.37308 10.2411 4.88677C14.8681 4.40046 19.0281 7.76914 19.5144 12.3961L19.9064 16.1255Z" fill="#FF5A30"/>
    <path d="M12.0998 40.5134L15.8292 40.1214C16.6016 40.0402 17.1619 39.3482 17.0808 38.5759C16.9996 37.8035 16.3076 37.2431 15.5352 37.3243L11.8058 37.7163C11.0334 37.7975 10.473 38.4895 10.5542 39.2618C10.6354 40.0342 11.3274 40.5946 12.0998 40.5134Z" fill="#FF5A30"/>
    </g>
    <defs>
    <clipPath id="clip0_71525_1171">
    <rect width="48" height="48" fill="white"/>
    </clipPath>
    </defs>
  </symbol>


</svg>